<svg viewBox="0 0 24 24" fill="none" xmlns="http://www.w3.org/2000/svg">
  <path fill-rule="evenodd" fill="#000000" clip-rule="evenodd" d="M 12.055 6.239 C 12.469 6.239 12.783 6.2 12.783 6.614 L 12.781 17.563 C 12.781 17.977 12.447 17.882 11.989 17.882 C 11.531 17.882 11.25 17.946 11.25 17.532 L 11.327 6.581 C 11.327 6.167 11.641 6.239 12.055 6.239 Z"></path>
  <path fill-rule="evenodd" fill="#009600" clip-rule="evenodd" d="M 16.526 8.399 C 16.825 8.111 17.053 7.967 17.341 8.265 L 20.617 11.632 C 20.897 11.923 20.912 12.138 20.632 12.429 L 17.249 15.766 C 16.961 16.064 16.825 15.889 16.526 15.601 C 16.228 15.313 16.051 15.192 16.338 14.894 L 18.234 12.75 L 14.057 12.764 C 13.643 12.764 13.705 12.486 13.705 12.072 C 13.705 11.658 13.636 11.279 14.05 11.279 L 18.235 11.25 L 16.354 9.184 C 16.067 8.885 16.228 8.687 16.526 8.399 Z"></path>
  <path fill-rule="evenodd" fill="#000000" clip-rule="evenodd" d="M 6.257 8.415 C 6.556 8.127 6.784 7.983 7.072 8.281 L 10.348 11.648 C 10.628 11.939 10.643 12.154 10.363 12.445 L 6.98 15.782 C 6.692 16.08 6.556 15.905 6.257 15.617 C 5.959 15.329 5.782 15.208 6.069 14.91 L 7.965 12.766 L 3.788 12.78 C 3.374 12.78 3.436 12.502 3.436 12.088 C 3.436 11.674 3.367 11.295 3.781 11.295 L 7.966 11.266 L 6.085 9.2 C 5.798 8.901 5.959 8.703 6.257 8.415 Z"></path>
</svg>